<svg width="38" height="38" viewBox="0 0 38 38" fill="none" xmlns="http://www.w3.org/2000/svg">
    <g clip-path="url(#clip0_3_20)">
        <path
            d="M1.86607 4.32592C1.86607 2.82687 3.08131 1.61163 4.58036 1.61163H33.3347C34.8338 1.61163 36.049 2.82687 36.049 4.32592V33.0804C36.049 34.5795 34.8338 35.7947 33.3347 35.7947H4.58036C3.08131 35.7947 1.86607 34.5795 1.86607 33.0804V4.32592Z"
            stroke="#3E59BA" stroke-width="3" stroke-linecap="round" stroke-linejoin="round" />
        <path
            d="M16.7946 9.66968C16.0451 9.66968 15.4375 10.2773 15.4375 11.0268V14.8439H11.6205C10.871 14.8439 10.2634 15.4515 10.2634 16.201V20.6117C10.2634 21.3612 10.871 21.9689 11.6205 21.9689H15.4375V25.7857C15.4375 26.5353 16.0451 27.1429 16.7946 27.1429H21.2054C21.9549 27.1429 22.5625 26.5353 22.5625 25.7857V21.9689H26.3795C27.129 21.9689 27.7367 21.3612 27.7367 20.6117V16.201C27.7367 15.4515 27.129 14.8439 26.3795 14.8439H22.5625V11.0268C22.5625 10.2773 21.9549 9.66968 21.2054 9.66968H16.7946Z"
            stroke="#3E59BA" stroke-width="3" stroke-linecap="round" stroke-linejoin="round" />
    </g>
    <defs>
        <clipPath id="clip0_3_20">
            <rect width="38" height="38" fill="white" />
        </clipPath>
    </defs>
</svg>