<svg width="40" height="40" viewBox="0 0 40 40" fill="none" xmlns="http://www.w3.org/2000/svg">
    <g clip-path="url(#clip0_3_24)">
        <path
            d="M19.7878 37.7195L11.2163 38.4623L11.9592 29.8909L29.7877 12.1766C30.054 11.9045 30.3717 11.6883 30.7226 11.5407C31.0731 11.393 31.45 11.317 31.8306 11.317C32.2111 11.317 32.588 11.393 32.9389 11.5407C33.2897 11.6883 33.6074 11.9045 33.8734 12.1766L37.502 15.8338C37.7697 16.0994 37.9823 16.4154 38.1274 16.7636C38.2726 17.1118 38.3471 17.4852 38.3471 17.8624C38.3471 18.2395 38.2726 18.613 38.1274 18.9612C37.9823 19.3093 37.7697 19.6253 37.502 19.8909L19.7878 37.7195Z"
            stroke="#3E59BA" stroke-width="3" stroke-linecap="round" stroke-linejoin="round" />
        <path
            d="M2.40483 11.3487C1.40217 11.1743 1.40217 9.73491 2.40482 9.56048C6.03729 8.92851 8.92637 6.16177 9.71483 2.56005L9.77526 2.28396C9.99217 1.29301 11.4032 1.28684 11.6287 2.27586L11.7021 2.5976C12.5197 6.18234 15.4096 8.92571 19.032 9.55591C20.0398 9.73123 20.0398 11.1779 19.032 11.3533C15.4096 11.9835 12.5197 14.7268 11.7021 18.3116L11.6287 18.6333C11.4032 19.6223 9.99217 19.6162 9.77526 18.6252L9.71483 18.3491C8.92637 14.7474 6.03729 11.9807 2.40483 11.3487Z"
            stroke="#3E59BA" stroke-width="3" stroke-linecap="round" stroke-linejoin="round" />
    </g>
    <defs>
        <clipPath id="clip0_3_24">
            <rect width="40" height="40" fill="white" />
        </clipPath>
    </defs>
</svg>