<svg width="35" height="35" viewBox="0 0 35 35" fill="none" xmlns="http://www.w3.org/2000/svg">
    <g clip-path="url(#clip0_3_45)">
        <path
            d="M33.75 17.35C33.7525 17.003 33.6825 16.6593 33.5448 16.3408C33.407 16.0223 33.2045 15.7359 32.95 15.5L17.5001 1.25L2.05006 15.5C1.79562 15.7359 1.59309 16.0223 1.45536 16.3408C1.31762 16.6593 1.24771 17.003 1.25006 17.35V31.25C1.25006 31.913 1.51345 32.549 1.98229 33.0177C2.45113 33.4865 3.08702 33.75 3.75005 33.75H31.25C31.913 33.75 32.549 33.4865 33.0177 33.0177C33.4867 32.549 33.75 31.913 33.75 31.25V17.35Z"
            stroke="white" stroke-width="3" stroke-linecap="round" stroke-linejoin="round" />
        <path
            d="M25.6225 25.0024H18.125C17.7798 25.0024 17.5 25.2823 17.5 25.6274V33.1249C17.5 33.4701 17.7798 33.7499 18.125 33.7499H25.6225C25.9677 33.7499 26.2475 33.4701 26.2475 33.1249V25.6274C26.2475 25.2823 25.9677 25.0024 25.6225 25.0024Z"
            stroke="white" stroke-width="3" stroke-linecap="round" stroke-linejoin="round" />
        <path
            d="M21.2475 16.2524H13.75C13.4048 16.2524 13.125 16.5323 13.125 16.8774V24.3749C13.125 24.7201 13.4048 24.9999 13.75 24.9999H21.2475C21.5927 24.9999 21.8725 24.7201 21.8725 24.3749V16.8774C21.8725 16.5323 21.5927 16.2524 21.2475 16.2524Z"
            stroke="white" stroke-width="3" stroke-linecap="round" stroke-linejoin="round" />
        <path
            d="M16.875 25.0024H9.3775C9.03232 25.0024 8.7525 25.2823 8.7525 25.6274V33.1249C8.7525 33.4701 9.03232 33.7499 9.3775 33.7499H16.875C17.2202 33.7499 17.5 33.4701 17.5 33.1249V25.6274C17.5 25.2823 17.2202 25.0024 16.875 25.0024Z"
            stroke="white" stroke-width="3" stroke-linecap="round" stroke-linejoin="round" />
    </g>
    <defs>
        <clipPath id="clip0_3_45">
            <rect width="35" height="35" fill="white" />
        </clipPath>
    </defs>
</svg>