<svg width="202" height="40" viewBox="0 0 202 40" fill="none" xmlns="http://www.w3.org/2000/svg">
    <g clip-path="url(#clip0_6_29)">
        <path fill-rule="evenodd" clip-rule="evenodd" d="M0 40H40.2993V0H0V40Z" fill="#FB651E" />
        <path fill-rule="evenodd" clip-rule="evenodd"
            d="M21.7868 21.9875V30.875H18.3865V21.9875L9.70959 9.125H13.8529L20.0992 18.625L26.3204 9.125H30.4637L21.7868 21.9875Z"
            fill="white" />
        <path fill-rule="evenodd" clip-rule="evenodd"
            d="M63.9315 13.4146C60.2038 13.4146 57.408 16.2771 57.408 19.9771C57.408 23.6771 60.2038 26.5646 63.9315 26.5646C66.3242 26.5646 68.4022 25.3396 69.523 23.2771L72.7217 25.1646C70.9335 28.2021 67.5836 30.1771 63.9315 30.1771C58.1888 30.1646 53.63 25.6396 53.63 19.9771C53.63 14.3021 58.1888 9.77713 63.9315 9.77713C67.6214 9.77713 70.9335 11.7271 72.7217 14.7896L69.523 16.6771C68.3896 14.6146 66.3242 13.4146 63.9315 13.4146Z"
            fill="#FB651E" />
        <path fill-rule="evenodd" clip-rule="evenodd"
            d="M85.013 22.5521C85.013 20.2396 83.3129 18.4896 81.1216 18.4896C78.8674 18.4896 77.1673 20.2396 77.1673 22.5521C77.1673 24.8646 78.8674 26.6146 81.1216 26.6146C83.2751 26.6146 85.013 24.8646 85.013 22.5521ZM73.5025 22.5521C73.5025 18.3771 76.8776 15.0271 81.1216 15.0271C85.3027 15.0271 88.6777 18.3771 88.6777 22.5521C88.6777 26.7271 85.3027 30.0771 81.1216 30.0771C76.8776 30.0771 73.5025 26.7271 73.5025 22.5521Z"
            fill="#FB651E" />
        <path fill-rule="evenodd" clip-rule="evenodd"
            d="M112.454 21.3521V29.7521H108.802V21.9896C108.802 19.8146 107.732 18.4396 106.12 18.4396C104.47 18.4396 103.261 19.8146 103.261 21.9896V29.7521H99.7348V21.9896C99.7348 19.8146 98.6266 18.4396 97.002 18.4396C95.3775 18.4396 94.1937 19.8146 94.1937 21.9896V29.7521H90.5416V15.3771H94.1937V17.2146C95.0878 15.8396 96.4731 14.9771 98.1732 14.9771C100.024 14.9771 101.485 16.0146 102.379 17.6271C103.299 16.1896 104.999 14.9771 107.14 14.9771C110.351 14.9771 112.454 17.7896 112.454 21.3521Z"
            fill="#FB651E" />
        <path fill-rule="evenodd" clip-rule="evenodd"
            d="M125.438 22.7021C125.438 20.3021 123.94 18.5771 121.836 18.5771C119.784 18.5771 118.235 20.2146 118.235 22.6646C118.235 25.1021 119.821 26.7521 121.899 26.7521C123.94 26.7396 125.438 25.0521 125.438 22.7021ZM122.605 30.1271C120.59 30.1271 119.104 29.2146 118.247 27.9521V29.7521H114.595V9.75214H118.247V17.1271C119.129 15.9521 120.615 15.1021 122.542 15.1021C126.282 15.1021 129.141 18.3021 129.204 22.6146C129.267 26.9771 126.345 30.1271 122.605 30.1271Z"
            fill="#FB651E" />
        <path fill-rule="evenodd" clip-rule="evenodd"
            d="M130.715 29.7521H134.367V15.3771H130.715V29.7521ZM130.249 11.3021C130.249 10.0771 131.282 9.15213 132.528 9.15213C133.737 9.15213 134.745 10.0646 134.745 11.3021C134.745 12.5271 133.737 13.4521 132.528 13.4521C131.294 13.4396 130.249 12.5271 130.249 11.3021Z"
            fill="#FB651E" />
        <path fill-rule="evenodd" clip-rule="evenodd"
            d="M150.109 21.4146V29.7521H146.583V22.1896C146.583 19.8771 145.361 18.4396 143.598 18.4396C141.659 18.4396 140.286 20.1896 140.286 22.2521V29.7521H136.76V15.3771H140.286V17.1896C141.268 15.8396 142.842 14.9771 144.681 14.9771C147.93 14.9771 150.109 17.7271 150.109 21.4146Z"
            fill="#FB651E" />
        <path fill-rule="evenodd" clip-rule="evenodd"
            d="M161.191 23.3771V23.0646L157.501 23.7771C156.267 24.0646 155.512 24.6896 155.512 25.5271C155.512 26.4146 156.33 27.0771 157.678 27.0396C159.617 26.9771 161.191 25.3021 161.191 23.3771ZM164.717 21.0771V29.7521H161.191V28.0896C160.121 29.2396 158.446 30.0896 156.595 30.1271C154.139 30.1271 151.973 28.5271 151.973 25.7771C151.973 23.1771 153.937 21.6896 156.859 21.1146L161.103 20.3146C160.813 19.1146 159.894 18.2021 158.496 18.2021C157.111 18.2021 155.814 19.0646 155.033 20.1521L152.376 18.2396C153.736 16.3521 156.129 15.0896 158.509 15.0896C162.06 15.0646 164.717 17.5021 164.717 21.0771Z"
            fill="#FB651E" />
        <path fill-rule="evenodd" clip-rule="evenodd"
            d="M172.148 18.6271V24.6521C172.148 25.8271 172.664 26.3646 173.734 26.3646H175.548V29.7396H173.231C170.145 29.7396 168.621 28.2396 168.621 25.0896V18.6271H165.977V15.3771H168.495V11.8271L172.148 10.7146V15.3771H175.548V18.6271H172.148Z"
            fill="#FB651E" />
        <path fill-rule="evenodd" clip-rule="evenodd"
            d="M188.255 22.5521C188.255 20.2396 186.555 18.4896 184.363 18.4896C182.109 18.4896 180.409 20.2396 180.409 22.5521C180.409 24.8646 182.109 26.6146 184.363 26.6146C186.517 26.6146 188.255 24.8646 188.255 22.5521ZM176.744 22.5521C176.744 18.3771 180.119 15.0271 184.363 15.0271C188.544 15.0271 191.919 18.3771 191.919 22.5521C191.919 26.7271 188.544 30.0771 184.363 30.0771C180.119 30.0771 176.744 26.7271 176.744 22.5521Z"
            fill="#FB651E" />
        <path fill-rule="evenodd" clip-rule="evenodd"
            d="M201.994 15.0646V18.5521C198.732 18.5521 197.335 20.1271 197.335 22.1896V29.7521H193.808V15.3771H197.335V17.1771C198.329 15.8896 199.929 15.0646 201.994 15.0646Z"
            fill="#FB651E" />
    </g>
    <defs>
        <clipPath id="clip0_6_29">
            <rect width="202" height="40" fill="white" />
        </clipPath>
    </defs>
</svg>